<svg xmlns="http://www.w3.org/2000/svg" xmlns:xlink="http://www.w3.org/1999/xlink" width="200" height="200.001" viewBox="0 0 200 200.001">
  <defs>
    <linearGradient id="linear-gradient" x1="0.146" y1="0.149" x2="0.857" y2="0.854" gradientUnits="objectBoundingBox">
      <stop offset="0" stop-color="#f9c542"/>
      <stop offset="1" stop-color="#ef5867"/>
    </linearGradient>
  </defs>
  <g id="Group_504" data-name="Group 504" transform="translate(-2260 -3854)">
    <rect id="Rectangle_223" data-name="Rectangle 223" width="200" height="200" transform="translate(2260 3854)" fill="url(#linear-gradient)"/>
    <path id="Intersection_1" data-name="Intersection 1" d="M218.308,221a.477.477,0,0,1-.111-.113l-1.5-2.137a.446.446,0,0,1,.092-.622l.158-.067c.168.031.081.017.259.042.087.017.139.092.2.151l1.5,2.136a.447.447,0,0,1-.075.609Zm-31.494,0a.426.426,0,0,1-.184-.249.42.42,0,0,1,.042-.322l.424-.734a.425.425,0,0,1,.735.424l-.424.734a.425.425,0,0,1-.142.148Zm-2.552,0-2.2-1.27.022,1.27h-2.064l-3.341-1.929A10.24,10.24,0,0,0,175.9,221h-.886a11.187,11.187,0,0,1,1.135-2.725.424.424,0,0,1,.58-.156l4.285,2.474h0l.215.124L181.2,219a.424.424,0,1,1,.637-.374L185.96,221Zm-28.218,0-.774-1.237a5.491,5.491,0,0,1-.631.028L154.022,221h-2.665l-.4-.144a.367.367,0,0,1-.233-.427l.437-1.9a5.509,5.509,0,0,1-.466-.428l-1.856.6a.368.368,0,0,1-.447-.194l-1.051-2.255a.368.368,0,0,1,.139-.467l1.653-1.035a5.7,5.7,0,0,1-.028-.632l-1.737-.887a.366.366,0,0,1-.178-.453l.85-2.338a.368.368,0,0,1,.428-.233l1.9.437a5.652,5.652,0,0,1,.427-.466l-.6-1.856a.367.367,0,0,1,.194-.446l2.255-1.051a.367.367,0,0,1,.467.138l1.035,1.653a5.7,5.7,0,0,1,.632-.027l.887-1.738a.367.367,0,0,1,.454-.178l2.337.851a.368.368,0,0,1,.233.428l-.437,1.9a5.652,5.652,0,0,1,.466.427l1.856-.6a.367.367,0,0,1,.446.194l1.052,2.255a.369.369,0,0,1-.139.468l-1.653,1.035a5.719,5.719,0,0,1,.028.632l1.737.887a.366.366,0,0,1,.178.453l-.851,2.337a.367.367,0,0,1-.427.233l-1.9-.437a5.523,5.523,0,0,1-.428.466l.6,1.856a.369.369,0,0,1-.194.447l-1.064.5Zm-4.962-3.568a4.816,4.816,0,0,0,.715.654.37.37,0,0,1,.138.378l-.417,1.812,1.726.628h0l.845-1.655a.369.369,0,0,1,.349-.2,4.767,4.767,0,0,0,.967-.042.367.367,0,0,1,.364.169l.987,1.576,1.664-.777-.572-1.769a.365.365,0,0,1,.1-.387,4.875,4.875,0,0,0,.654-.715.369.369,0,0,1,.378-.139l1.812.417.628-1.726-1.656-.845a.368.368,0,0,1-.2-.348,4.913,4.913,0,0,0-.042-.967.368.368,0,0,1,.168-.365l1.577-.987-.777-1.665-1.769.573a.369.369,0,0,1-.388-.1,4.823,4.823,0,0,0-.714-.654.366.366,0,0,1-.139-.377l.417-1.813-1.726-.628-.846,1.656a.366.366,0,0,1-.348.2,4.9,4.9,0,0,0-.967.042.368.368,0,0,1-.364-.168l-.986-1.577L151,208.4l.573,1.768a.368.368,0,0,1-.105.388,4.925,4.925,0,0,0-.654.715.366.366,0,0,1-.377.138L148.624,211,148,212.723l1.656.846a.369.369,0,0,1,.2.348,4.912,4.912,0,0,0,.042.967.369.369,0,0,1-.169.365l-1.576.986.777,1.665,1.768-.573a.368.368,0,0,1,.388.105ZM147.134,221l.288-.563a.368.368,0,0,1,.454-.179l1.752.639a.365.365,0,0,1,.152.1Zm-3.277,0,1.341-.626a.369.369,0,0,1,.468.139l.3.487ZM122.4,221l.338-.338a.483.483,0,0,1,.221-.113c.179.005.092,0,.262,0l.145.093a.423.423,0,0,1,.117.355Zm-17.609,0a.424.424,0,0,1,.118-.355l.144-.093c.17,0,.083,0,.263,0a.416.416,0,0,1,.221.113l.338.338Zm-17.115,0a8.489,8.489,0,0,0-16.949,0h-.85a9.339,9.339,0,0,1,18.65,0Zm-2.127,0a6.367,6.367,0,0,0-12.7,0H72a7.216,7.216,0,0,1,14.4,0Zm-61.219,0a.926.926,0,0,0-.325-.723V219.23A1.853,1.853,0,0,1,25.251,221Zm89.294-.824v-2.608a.433.433,0,1,1,.864,0v2.608a.433.433,0,1,1-.864,0Zm71.368-.23a.425.425,0,0,1-.155-.58l.849-1.47a.424.424,0,0,1,.734.425l-.849,1.47a.424.424,0,0,1-.58.156Zm-1.84-1.063a.424.424,0,0,1-.156-.58l.424-.734a.425.425,0,0,1,.735.425l-.424.734a.425.425,0,0,1-.58.155Zm-31.142-3.433a2.984,2.984,0,1,1,2.709,1.723A2.988,2.988,0,0,1,152.006,215.451Zm1.754-3.3a2.249,2.249,0,1,0,.948-.211A2.251,2.251,0,0,0,153.76,212.152ZM52.733,216.533a.74.74,0,0,1-.522-.221.684.684,0,0,1-.194-.725.073.073,0,0,0,.018-.053l4.472-13.592-12.5,4.082,4.012,4.012a.727.727,0,0,1,0,1.025.729.729,0,0,1-.531.229.7.7,0,0,1-.512-.211l-4.843-4.843-.018-.018a.753.753,0,0,1,.247-1.2.1.1,0,0,0,.071-.036l15.112-4.931a.584.584,0,0,1,.707.141.594.594,0,0,1,.141.671l-4.949,15.131a.051.051,0,0,0-.018.035.05.05,0,0,1-.017.035.683.683,0,0,1-.159.266.673.673,0,0,1-.495.2Zm136.393-15.968a9.349,9.349,0,0,1,4.517-12.41,9.563,9.563,0,0,1,5.863-.672l.39-1.072-.447-.163a.423.423,0,0,1-.254-.544l3.03-8.326a2.225,2.225,0,0,1,4.182,1.522l-3.03,8.327c-.143.234-.037.12-.377.279l-.167-.026-.447-.162-.39,1.072a9.576,9.576,0,0,1,4.058,4.283,9.338,9.338,0,0,1-16.927,7.893ZM194,188.924a8.49,8.49,0,1,0,3.575-.795A8.5,8.5,0,0,0,194,188.924Zm6.328-1.228a4.991,4.991,0,0,1,.895.326l.363-1-.894-.326Zm2.692-10.029-2.885,7.927,2.587.941,2.885-7.927a1.377,1.377,0,0,0-2.588-.941Zm-85.865,25.759a1.854,1.854,0,0,1-.228-2.61,1.825,1.825,0,0,1,.8-.547l-.438-5a3.679,3.679,0,0,1-3.474-2.916l-6.305.552a2.756,2.756,0,1,1-.188-.913l6.412-.562a3.681,3.681,0,0,1,2.916-3.474l-.438-5a1.818,1.818,0,0,1-.885-.4,1.874,1.874,0,1,1,1.807.32l.437,5a3.681,3.681,0,0,1,3.475,2.915l8.262-.722a2.747,2.747,0,1,1,.187.913l-8.369.733a3.674,3.674,0,0,1-.586,1.864l3.6,3.024a2.779,2.779,0,1,1-.595.709l-3.6-3.024a3.68,3.68,0,0,1-1.735.9l.438,5a1.833,1.833,0,0,1,.886.4,1.853,1.853,0,0,1-2.381,2.839Zm.481-2.015a.927.927,0,1,0,.709-.33A.927.927,0,0,0,117.638,201.412Zm6.89-3.889a1.855,1.855,0,1,0,1.42-.661A1.854,1.854,0,0,0,124.529,197.523Zm-21.207-5.705a1.855,1.855,0,1,0,1.421-.661A1.856,1.856,0,0,0,103.322,191.818Zm11.984-2.034a2.781,2.781,0,1,0,2.131-.991A2.781,2.781,0,0,0,115.305,189.784Zm15.359-1.015a1.855,1.855,0,1,0,1.42-.661A1.854,1.854,0,0,0,130.665,188.769Zm-14.854-8.232a.927.927,0,1,0,.71-.33A.928.928,0,0,0,115.811,180.536Zm75.238,19.131a7.217,7.217,0,1,1,6.551,4.166A7.225,7.225,0,0,1,191.049,199.668Zm3.849-8.82a6.368,6.368,0,1,0,2.682-.6A6.375,6.375,0,0,0,194.9,190.848ZM24,202.1v-.736h.859l.228-1.846a.369.369,0,0,1,.259-.307,4.849,4.849,0,0,0,.895-.37.367.367,0,0,1,.4.034l1.466,1.143,1.3-1.3-1.143-1.466a.367.367,0,0,1-.034-.4,4.866,4.866,0,0,0,.371-.9.367.367,0,0,1,.307-.258l1.845-.228v-1.838l-1.845-.228a.367.367,0,0,1-.307-.258,4.865,4.865,0,0,0-.371-.9.367.367,0,0,1,.034-.4l1.143-1.466-1.3-1.3-1.466,1.143a.367.367,0,0,1-.4.034,4.883,4.883,0,0,0-.895-.371.367.367,0,0,1-.259-.307l-.228-1.845H24V187h1.184a.367.367,0,0,1,.365.323l.239,1.936a5.354,5.354,0,0,1,.584.242l1.538-1.2a.367.367,0,0,1,.486.03l1.76,1.759a.368.368,0,0,1,.03.487l-1.2,1.538a5.612,5.612,0,0,1,.241.584l1.936.239a.368.368,0,0,1,.323.365v2.488a.369.369,0,0,1-.323.365l-1.936.239a5.625,5.625,0,0,1-.241.585l1.2,1.538a.367.367,0,0,1-.03.486L28.4,200.767a.369.369,0,0,1-.487.031l-1.538-1.2a5.733,5.733,0,0,1-.584.242l-.239,1.936a.367.367,0,0,1-.365.323Zm0-5.3a2.249,2.249,0,0,0,0-4.5v-.736a2.985,2.985,0,0,1,0,5.968Zm61.373-1.245a17.285,17.285,0,0,1-11.011-7.364c-.052-.075-.1-.151-.15-.227-2.286.3-5.029-1.249-6.922-3.953a.425.425,0,0,1,.1-.591l4.053-2.839h0l.193-.136-1.574-.7a.424.424,0,1,1-.07-.735l5.564-3.9a.425.425,0,0,1,.668.318l.121,1.72.2-.143h0l4.054-2.839a.424.424,0,0,1,.59.1c1.894,2.7,2.413,5.812,1.347,7.857.053.074.11.144.162.219a17.287,17.287,0,0,1,3.154,12.866.425.425,0,0,1-.418.347A.429.429,0,0,1,85.373,195.554Zm-4-2.238a14.263,14.263,0,0,0,3.722,1.324,14.288,14.288,0,0,0,.029-3.95Zm-9.212-12.2a18.395,18.395,0,0,0,8.385,11.741l4.43-3.1a18.406,18.406,0,0,0-8.166-11.9Zm-3.928,2.75c1.554,2.042,3.674,3.306,5.453,3.286a18.766,18.766,0,0,1-2.273-5.512Zm9.325-6.53a18.774,18.774,0,0,1,4.4,4.022c.627-1.666.166-4.09-1.222-6.248ZM71.1,179.273l1.355.6,3.086-2.16-.1-1.48Zm86.777,15.9a.779.779,0,0,1-.49-.668.1.1,0,0,0-.009-.078l.535-15.888a.582.582,0,0,1,.374-.616.594.594,0,0,1,.68.1l12.525,9.825a.045.045,0,0,0,.027.029.057.057,0,0,1,.027.029.675.675,0,0,1,.207.8.737.737,0,0,1-.385.415.682.682,0,0,1-.748-.065.073.073,0,0,0-.043-.035l-11.244-8.851-.437,13.139,5.143-2.4a.727.727,0,0,1,.964.351.732.732,0,0,1,.034.577.7.7,0,0,1-.374.41l-6.207,2.894-.023.01a.715.715,0,0,1-.3.07A.728.728,0,0,1,157.875,195.173Zm-122.7-2.209a.369.369,0,0,1-.365-.322l-.172-1.4c-.117-.042-.231-.09-.343-.141l-1.108.864a.368.368,0,0,1-.487-.03l-1.319-1.319a.368.368,0,0,1-.03-.487l.865-1.108c-.052-.112-.1-.226-.142-.342l-1.4-.173a.368.368,0,0,1-.322-.365V186.28a.369.369,0,0,1,.322-.366l1.4-.172c.042-.117.089-.23.141-.342l-.865-1.109a.368.368,0,0,1,.03-.487l1.319-1.319a.368.368,0,0,1,.487-.03l1.108.865c.112-.052.227-.1.343-.142l.173-1.4a.367.367,0,0,1,.365-.323h1.866a.367.367,0,0,1,.364.323l.173,1.4c.116.043.23.09.343.142l1.109-.865a.367.367,0,0,1,.486.03l1.319,1.319a.368.368,0,0,1,.03.487L40,185.4c.052.112.1.226.142.342l1.4.172a.369.369,0,0,1,.322.366v1.865a.368.368,0,0,1-.323.365l-1.4.173c-.042.116-.09.23-.142.342l.865,1.108a.368.368,0,0,1-.03.487l-1.319,1.319a.367.367,0,0,1-.486.031l-1.109-.865c-.112.051-.226.1-.343.141l-.173,1.4a.367.367,0,0,1-.364.323Zm-.749-2.616a3.569,3.569,0,0,0,.653.27.367.367,0,0,1,.259.307l.161,1.3h1.215l.162-1.3a.368.368,0,0,1,.259-.307,3.5,3.5,0,0,0,.653-.27.368.368,0,0,1,.4.033l1.036.808.859-.859-.807-1.036a.367.367,0,0,1-.034-.4,3.58,3.58,0,0,0,.271-.654.367.367,0,0,1,.307-.258l1.3-.161v-1.215l-1.3-.161a.369.369,0,0,1-.307-.259,3.572,3.572,0,0,0-.271-.653.368.368,0,0,1,.034-.4l.807-1.035-.86-.859-1.035.808a.368.368,0,0,1-.4.033,3.549,3.549,0,0,0-.653-.271.367.367,0,0,1-.26-.307l-.161-1.3H35.5l-.161,1.3a.369.369,0,0,1-.259.308,3.507,3.507,0,0,0-.653.27.368.368,0,0,1-.4-.033l-1.036-.808-.859.859.807,1.035a.368.368,0,0,1,.034.4,3.516,3.516,0,0,0-.271.653.369.369,0,0,1-.307.259l-1.3.161v1.215l1.3.161a.369.369,0,0,1,.308.259,3.51,3.51,0,0,0,.271.653.367.367,0,0,1-.034.4l-.807,1.036.859.859,1.036-.808a.368.368,0,0,1,.4-.033Zm42.98-1.508a2.975,2.975,0,1,1,2.438,1.265A2.975,2.975,0,0,1,77.406,188.84Zm1.218-3.443a2.124,2.124,0,1,0,1.216-.384A2.125,2.125,0,0,0,78.624,185.4Zm-44.846,1.816a2.331,2.331,0,1,1,2.331,2.331A2.333,2.333,0,0,1,33.778,187.213Zm.735,0a1.595,1.595,0,1,0,1.6-1.595A1.6,1.6,0,0,0,34.513,187.213Zm35.695-9.391-.487-.695a.425.425,0,0,1,.7-.487l.487.695a.425.425,0,0,1-.7.487Zm1.741-1.219-.974-1.391a.425.425,0,0,1,.7-.487l.974,1.391a.425.425,0,0,1-.7.487Zm1.741-1.219-.487-.695a.425.425,0,0,1,.7-.488l.486.7a.424.424,0,0,1-.695.487Zm60.511-2.572a2.216,2.216,0,0,1,.511-1.624l5.7-6.787a.424.424,0,0,1,.6-.052l.365.306.733-.874a9.562,9.562,0,0,1-2.349-5.413,9.338,9.338,0,1,1,10.117,8.489,9.575,9.575,0,0,1-5.737-1.373l-.734.874.365.306.105.132c.033.374.079.224-.053.466l-5.7,6.788a2.219,2.219,0,0,1-1.51.785q-.1.008-.194.008A2.229,2.229,0,0,1,134.2,172.812Zm1.162-1.079a1.378,1.378,0,0,0,2.109,1.77l5.423-6.462-2.109-1.77ZM148.316,149.1a8.484,8.484,0,1,0,.747-.033Q148.693,149.064,148.316,149.1Zm-6.3,16.1.729.612.681-.812a4.938,4.938,0,0,1-.729-.612Zm77.628,3.507a.593.593,0,0,1-.2-.656l3.612-15.5a.049.049,0,0,0,.014-.036.051.051,0,0,1,.014-.037.67.67,0,0,1,.135-.278.683.683,0,0,1,.5-.248.79.79,0,0,1,.274.03v3.07l-2.761,11.764L224,165.634v1.6l-3.635,1.548a.625.625,0,0,1-.309.089A.632.632,0,0,1,219.648,168.707ZM44.171,167.233a1.854,1.854,0,0,1,.678-2.53,1.823,1.823,0,0,1,.941-.24l1.3-4.851a3.681,3.681,0,0,1-2.268-3.928l-8.011-2.147a2.75,2.75,0,1,1,.136-.922l8.115,2.173a3.69,3.69,0,0,1,1.188-1.552L43.9,149.162a2.776,2.776,0,1,1,.8-.463l2.352,4.074a3.683,3.683,0,0,1,1.939-.253l1.3-4.851a1.827,1.827,0,0,1-.7-.679,1.852,1.852,0,1,1,2.531.679,1.828,1.828,0,0,1-.941.24l-1.3,4.851a3.682,3.682,0,0,1,2.268,3.928l6.113,1.638a2.752,2.752,0,1,1-.136.923l-6.217-1.666a3.677,3.677,0,0,1-3.928,2.268l-1.3,4.851a1.832,1.832,0,0,1,.7.679,1.852,1.852,0,0,1-3.208,1.852Zm1.141-1.728a.925.925,0,1,0,.462-.124A.927.927,0,0,0,45.312,165.5Zm14.668-7.934a1.853,1.853,0,1,0,.923-.248A1.855,1.855,0,0,0,59.981,157.57ZM47.1,153.779a2.781,2.781,0,1,0,1.385-.371A2.781,2.781,0,0,0,47.1,153.779Zm-13.855-2.695a1.854,1.854,0,1,0,.924-.248A1.854,1.854,0,0,0,33.243,151.085ZM42,144.958a1.853,1.853,0,1,0,.924-.248A1.854,1.854,0,0,0,42,144.958Zm8.732.306a.926.926,0,1,0,.462-.124A.927.927,0,0,0,50.736,145.264ZM24,165.962l.074-.1L24,165.814v-1q.471.283.916.6a.425.425,0,0,1,.1.586,14.213,14.213,0,0,1-1.02,1.31Zm117.868-7.78a7.216,7.216,0,1,1,7.817,6.56q-.319.028-.634.028A7.227,7.227,0,0,1,141.868,158.182Zm6.634-6.971a6.364,6.364,0,1,0,.56-.025Q148.784,151.186,148.5,151.211Zm35.782,11.125-2.337-.851a.368.368,0,0,1-.233-.428l.437-1.9a5.526,5.526,0,0,1-.466-.428l-1.856.6a.367.367,0,0,1-.446-.194l-1.052-2.255a.368.368,0,0,1,.139-.467l1.653-1.035a5.693,5.693,0,0,1-.027-.633l-1.738-.887a.367.367,0,0,1-.178-.454l.85-2.338a.368.368,0,0,1,.428-.232l1.9.437a5.365,5.365,0,0,1,.427-.466l-.6-1.856a.37.37,0,0,1,.2-.447l2.255-1.051a.369.369,0,0,1,.468.139l1.035,1.653a5.686,5.686,0,0,1,.632-.028l.887-1.737a.367.367,0,0,1,.454-.178l2.337.85a.369.369,0,0,1,.233.428l-.437,1.9a5.524,5.524,0,0,1,.467.427l1.855-.6a.368.368,0,0,1,.447.194l1.051,2.255a.368.368,0,0,1-.139.467l-1.653,1.035a5.68,5.68,0,0,1,.028.632l1.737.887a.367.367,0,0,1,.178.454l-.85,2.337a.369.369,0,0,1-.428.233l-1.9-.437a5.523,5.523,0,0,1-.428.466l.6,1.856a.368.368,0,0,1-.194.446l-2.254,1.052a.368.368,0,0,1-.467-.139l-1.035-1.653a5.687,5.687,0,0,1-.633.027l-.886,1.738a.367.367,0,0,1-.454.178Zm-2.215-4.274a4.822,4.822,0,0,0,.714.654.367.367,0,0,1,.138.377L182.5,160.9l1.726.629.845-1.657a.371.371,0,0,1,.348-.2,4.822,4.822,0,0,0,.968-.041.367.367,0,0,1,.365.169l.986,1.576,1.665-.777-.573-1.769a.369.369,0,0,1,.105-.389,4.872,4.872,0,0,0,.654-.714.367.367,0,0,1,.377-.138l1.812.417.628-1.726-1.656-.845a.369.369,0,0,1-.2-.348,4.876,4.876,0,0,0-.042-.967.368.368,0,0,1,.169-.365l1.576-.986-.777-1.665-1.769.573a.369.369,0,0,1-.388-.1,4.743,4.743,0,0,0-.715-.655.369.369,0,0,1-.138-.377l.417-1.812-1.726-.628-.845,1.656a.369.369,0,0,1-.348.2A4.9,4.9,0,0,0,185,150a.369.369,0,0,1-.365-.168l-.986-1.577-1.665.777.573,1.768a.368.368,0,0,1-.105.388,4.925,4.925,0,0,0-.654.715.369.369,0,0,1-.377.138l-1.812-.417-.628,1.726,1.656.845a.369.369,0,0,1,.2.348,4.9,4.9,0,0,0,.042.967.368.368,0,0,1-.169.365l-1.576.986.777,1.665,1.769-.573a.368.368,0,0,1,.388.105Zm-86.95,2.891-.887-1.738a5.7,5.7,0,0,1-.632-.028l-1.035,1.653a.369.369,0,0,1-.468.139l-2.255-1.051a.369.369,0,0,1-.194-.447l.6-1.856a5.352,5.352,0,0,1-.428-.466l-1.9.437a.367.367,0,0,1-.428-.232l-.851-2.338a.368.368,0,0,1,.179-.454l1.737-.887a5.5,5.5,0,0,1,.028-.632l-1.653-1.034a.369.369,0,0,1-.139-.468l1.051-2.255a.368.368,0,0,1,.447-.194l1.856.6a5.655,5.655,0,0,1,.466-.428l-.437-1.9a.369.369,0,0,1,.232-.428l2.338-.851a.367.367,0,0,1,.454.178l.886,1.737a5.69,5.69,0,0,1,.632.028l1.035-1.653a.366.366,0,0,1,.467-.138l2.255,1.051a.368.368,0,0,1,.2.447l-.6,1.855a5.524,5.524,0,0,1,.427.466l1.9-.437a.366.366,0,0,1,.428.232l.851,2.337a.367.367,0,0,1-.178.454l-1.738.887a5.5,5.5,0,0,1-.028.633l1.654,1.035a.366.366,0,0,1,.138.467l-1.051,2.255a.368.368,0,0,1-.446.2l-1.856-.6a5.653,5.653,0,0,1-.466.427l.437,1.9a.369.369,0,0,1-.233.428l-2.337.851a.367.367,0,0,1-.454-.178Zm-.338-2.282.846,1.657,1.726-.629-.417-1.812a.368.368,0,0,1,.139-.378,4.775,4.775,0,0,0,.714-.654.369.369,0,0,1,.388-.1l1.768.573.777-1.665-1.577-.986a.367.367,0,0,1-.168-.365,4.918,4.918,0,0,0,.042-.967.368.368,0,0,1,.2-.349l1.656-.845-.629-1.726-1.812.417a.366.366,0,0,1-.377-.139,4.823,4.823,0,0,0-.654-.714.369.369,0,0,1-.105-.388l.573-1.769-1.665-.776-.986,1.576a.368.368,0,0,1-.365.168,4.889,4.889,0,0,0-.967-.042.369.369,0,0,1-.349-.2l-.845-1.656-1.726.628.417,1.812a.368.368,0,0,1-.139.377,4.874,4.874,0,0,0-.714.655.369.369,0,0,1-.388.1l-1.769-.573-.777,1.665,1.576.986a.369.369,0,0,1,.169.365,4.778,4.778,0,0,0-.042.967.369.369,0,0,1-.2.349l-1.657.845.628,1.726,1.813-.417a.368.368,0,0,1,.377.139,4.918,4.918,0,0,0,.654.714.368.368,0,0,1,.105.388l-.574,1.769,1.666.776L93.1,158.6a.367.367,0,0,1,.365-.169,4.912,4.912,0,0,0,.967.042h.021A.367.367,0,0,1,94.781,158.671Zm89.895-1.048a2.984,2.984,0,1,1,1.019.18A2.987,2.987,0,0,1,184.676,157.622Zm-1.093-3.574a2.25,2.25,0,1,0,2.115-1.479A2.252,2.252,0,0,0,183.583,154.049ZM92.9,156.318a2.986,2.986,0,1,1,1.257.279A2.988,2.988,0,0,1,92.9,156.318Zm-.777-3.656a2.251,2.251,0,1,0,2.042-1.3A2.252,2.252,0,0,0,92.121,152.663Zm103.541-1.044-1.753-.638a.369.369,0,0,1-.233-.428l.316-1.371c-.094-.079-.185-.163-.274-.25l-1.337.434a.367.367,0,0,1-.446-.2l-.789-1.69a.368.368,0,0,1,.139-.467l1.192-.746c-.01-.123-.015-.247-.015-.37l-1.253-.64a.367.367,0,0,1-.178-.454l.637-1.753a.367.367,0,0,1,.428-.232l1.372.315c.079-.1.163-.186.249-.274l-.434-1.337a.369.369,0,0,1,.2-.447l1.691-.788a.368.368,0,0,1,.467.139l.746,1.192c.122-.01.246-.016.37-.016l.639-1.252a.367.367,0,0,1,.454-.178l1.753.637a.369.369,0,0,1,.233.428l-.315,1.371q.142.12.273.25l1.337-.434a.369.369,0,0,1,.447.2l.788,1.69a.369.369,0,0,1-.139.468l-1.192.746c.011.122.016.246.016.369l1.252.64a.367.367,0,0,1,.178.454l-.637,1.753a.367.367,0,0,1-.428.232l-1.371-.315c-.079.094-.163.186-.25.274l.434,1.337a.369.369,0,0,1-.194.447l-1.691.788a.368.368,0,0,1-.467-.139l-.746-1.192c-.122.011-.247.016-.37.016l-.64,1.252a.369.369,0,0,1-.454.179Zm-1.561-3.353a3.508,3.508,0,0,0,.522.478.367.367,0,0,1,.138.378l-.294,1.279,1.142.416.6-1.17a.367.367,0,0,1,.347-.2,3.574,3.574,0,0,0,.707-.031.368.368,0,0,1,.365.168l.7,1.113,1.1-.513-.4-1.249a.371.371,0,0,1,.1-.389,3.552,3.552,0,0,0,.479-.521.366.366,0,0,1,.377-.139l1.28.294.415-1.142-1.169-.6a.369.369,0,0,1-.2-.349,3.556,3.556,0,0,0-.031-.706.366.366,0,0,1,.168-.365l1.113-.7-.514-1.1-1.248.4a.369.369,0,0,1-.389-.105,3.5,3.5,0,0,0-.522-.478.369.369,0,0,1-.138-.377l.294-1.28-1.142-.416-.6,1.17a.37.37,0,0,1-.348.2,3.577,3.577,0,0,0-.707.03.367.367,0,0,1-.365-.168l-.7-1.113-1.1.514.4,1.249a.369.369,0,0,1-.105.389,3.449,3.449,0,0,0-.477.521.369.369,0,0,1-.377.139l-1.281-.3-.415,1.142,1.169.6a.366.366,0,0,1,.2.348,3.506,3.506,0,0,0,.03.707.367.367,0,0,1-.168.365l-1.113.7.514,1.1,1.249-.4a.367.367,0,0,1,.388.105Zm-64.7,2.861a.074.074,0,0,0-.024-.049L122.932,138.3l-5.949,11.723h5.674a.728.728,0,0,1,.725.725.727.727,0,0,1-.213.537.7.7,0,0,1-.512.212h-6.873a.755.755,0,0,1-.676-1.025.1.1,0,0,0,.025-.075l7.2-14.173a.583.583,0,0,1,.6-.4.593.593,0,0,1,.574.374l7.2,14.2a.055.055,0,0,0,.013.038.051.051,0,0,1,.013.037.664.664,0,0,1,.075.3.68.68,0,0,1-.224.513.743.743,0,0,1-.526.212A.682.682,0,0,1,129.406,151.126Zm66.55-3.042a2.332,2.332,0,1,1,.795.14A2.333,2.333,0,0,1,195.956,148.084Zm-.7-2.736a1.594,1.594,0,1,0,1.5-1.049A1.6,1.6,0,0,0,195.255,145.348ZM86.87,147.366l-.639-1.253q-.185,0-.37-.016l-.746,1.192a.369.369,0,0,1-.468.139l-1.69-.788a.367.367,0,0,1-.194-.446l.433-1.338c-.087-.087-.171-.178-.25-.273l-1.371.315a.369.369,0,0,1-.428-.233l-.637-1.753a.367.367,0,0,1,.178-.454l1.252-.639c0-.123.006-.247.017-.37l-1.192-.746a.368.368,0,0,1-.139-.467l.788-1.691a.369.369,0,0,1,.447-.194l1.338.433c.087-.087.178-.171.273-.25l-.315-1.37a.368.368,0,0,1,.232-.428l1.753-.638a.367.367,0,0,1,.454.178l.64,1.253c.122,0,.247.005.37.015l.746-1.191a.368.368,0,0,1,.467-.139l1.691.788a.367.367,0,0,1,.194.447l-.433,1.337q.131.132.251.274l1.37-.315a.368.368,0,0,1,.428.232l.638,1.753a.369.369,0,0,1-.178.454l-1.253.64q0,.184-.016.37l1.193.746a.37.37,0,0,1,.138.468l-.788,1.69a.368.368,0,0,1-.447.194l-1.337-.433c-.087.087-.178.17-.274.25l.316,1.37a.369.369,0,0,1-.233.428l-1.752.638a.368.368,0,0,1-.454-.178Zm-.089-1.794.6,1.169,1.141-.416-.294-1.28a.368.368,0,0,1,.139-.377,3.6,3.6,0,0,0,.522-.478.368.368,0,0,1,.388-.105l1.249.4.514-1.1-1.113-.7a.369.369,0,0,1-.169-.365,3.568,3.568,0,0,0,.031-.706.369.369,0,0,1,.2-.349l1.17-.6-.416-1.142-1.279.294a.369.369,0,0,1-.378-.139,3.548,3.548,0,0,0-.478-.522.367.367,0,0,1-.105-.388l.4-1.249-1.1-.513-.7,1.113a.368.368,0,0,1-.364.168,3.568,3.568,0,0,0-.707-.031.369.369,0,0,1-.349-.2l-.6-1.17-1.141.416.294,1.28a.37.37,0,0,1-.139.377,3.5,3.5,0,0,0-.522.478.368.368,0,0,1-.388.105l-1.249-.4-.514,1.1,1.113.7a.368.368,0,0,1,.169.365,3.5,3.5,0,0,0-.031.706.369.369,0,0,1-.2.349l-1.169.6.416,1.142,1.28-.294a.368.368,0,0,1,.378.139,3.461,3.461,0,0,0,.477.52.369.369,0,0,1,.105.388l-.4,1.25,1.1.513.7-1.113a.367.367,0,0,1,.364-.168,3.575,3.575,0,0,0,.707.031h.022A.366.366,0,0,1,86.781,145.572Zm-1.533-1.64a2.333,2.333,0,1,1,.982.218A2.334,2.334,0,0,1,85.248,143.933Zm-.461-2.786a1.6,1.6,0,1,0,1.448-.92A1.6,1.6,0,0,0,84.787,141.146Zm108.41-7.77a.744.744,0,0,1-.522-.221.684.684,0,0,1-.194-.725.069.069,0,0,0,.018-.053l4.472-13.592-12.5,4.082,4.012,4.013a.724.724,0,0,1,0,1.024.725.725,0,0,1-.53.23.7.7,0,0,1-.513-.212L182.6,123.08l-.017-.018a.724.724,0,0,1,0-1.024.685.685,0,0,1,.247-.177.1.1,0,0,0,.07-.035l15.113-4.932a.583.583,0,0,1,.706.141.594.594,0,0,1,.141.672l-4.949,15.13a.05.05,0,0,0-.017.035.055.055,0,0,1-.018.036.664.664,0,0,1-.159.265.678.678,0,0,1-.5.2ZM59.8,133.15a.781.781,0,0,1-.547-.622.1.1,0,0,0-.016-.077l-.851-15.873a.582.582,0,0,1,.319-.646.593.593,0,0,1,.685.037l13.333,8.7a.057.057,0,0,0,.03.026.048.048,0,0,1,.03.026.665.665,0,0,1,.215.222.681.681,0,0,1,.061.556.744.744,0,0,1-.348.446.683.683,0,0,1-.751,0,.071.071,0,0,0-.047-.031l-11.971-7.837L60.65,131.2l4.914-2.838a.725.725,0,0,1,.99.266.73.73,0,0,1,.085.572.7.7,0,0,1-.338.439l-5.931,3.424-.022.013a.7.7,0,0,1-.354.1A.749.749,0,0,1,59.8,133.15ZM220.77,121.562a.426.426,0,0,1,.456-.383,14.517,14.517,0,0,1,2.774.5v.886a13.77,13.77,0,0,0-2.419-.5A14.311,14.311,0,0,0,221.9,126l2.1-1.765v1.108l-1.875,1.573A17.349,17.349,0,0,0,224,131.21v1.551A16.9,16.9,0,0,1,220.77,121.562Zm-62.286,10.021-.892-2.451a.445.445,0,0,1,.25-.577l.17-.024c.154.074.074.038.239.108.08.039.11.125.152.2l.892,2.451a.445.445,0,0,1-.249.577.412.412,0,0,1-.141.025A.456.456,0,0,1,158.484,131.583Zm-8.138.061-3.84-1.791a.419.419,0,0,1-.23-.283,3.627,3.627,0,0,1,.13-2.068l.676-1.449.207-2.207a7.719,7.719,0,1,1,7.155,3.337l-1.557,1.577-.676,1.448a3.626,3.626,0,0,1-1.5,1.43.418.418,0,0,1-.365.005Zm-3.293-2.458,3.451,1.61a3.236,3.236,0,0,0,.714-.589l-4.172-1.946A3.174,3.174,0,0,0,147.053,129.186Zm.287-1.71,4.29,2,.353-.758-4.29-2Zm.091-10.885a6.905,6.905,0,0,0,.628,6.9.417.417,0,0,1,.076.281l-.2,2.137,4.514,2.105,1.508-1.527a.419.419,0,0,1,.264-.123,6.885,6.885,0,1,0-6.79-9.773ZM24,130.941v-.866a8.49,8.49,0,1,0,0-16.614V112.6a9.337,9.337,0,1,1,0,18.345Zm0-2.173v-.879a6.367,6.367,0,1,0,0-12.243v-.879a7.215,7.215,0,1,1,0,14Zm141-3.842-2.364-1.1a.433.433,0,1,1,.365-.783l2.364,1.1a.445.445,0,0,1,.23.584.431.431,0,0,1-.395.244A.476.476,0,0,1,165,124.926Zm-23.869-1.417a.446.446,0,0,1,.282-.562l2.451-.891a.479.479,0,0,1,.249-.011c.16.082.081.044.236.114l.091.146a.444.444,0,0,1-.281.562l-2.451.892a.478.478,0,0,1-.164.029A.434.434,0,0,1,141.131,123.51Zm-29.708-1.165-.581-1.595a.425.425,0,0,1,.8-.291l.58,1.6a.425.425,0,0,1-.259.53.423.423,0,0,1-.538-.24Zm-2.288-.071-.29-.8a.424.424,0,1,1,.8-.29l.291.8a.425.425,0,0,1-.8.291Zm3.993-1.453-.291-.8a.425.425,0,0,1,.8-.29l.29.8a.425.425,0,0,1-.8.291Zm-5.8.072a.421.421,0,0,1-.141-.4l.328-1.692-.222.081h0l-4.65,1.693a.424.424,0,0,1-.544-.255c-1.129-3.1-.826-6.238.732-7.937-.032-.085-.068-.167-.1-.253a17.287,17.287,0,0,1,.284-13.243.425.425,0,0,1,.559-.2,17.292,17.292,0,0,1,8.731,9.964c.031.085.056.172.086.257,2.286.3,4.535,2.508,5.664,5.61a.425.425,0,0,1-.254.544l-4.65,1.692h0l-.233.085,1.339,1.085a.424.424,0,0,1-.122.728l-6.384,2.324a.426.426,0,0,1-.145.026A.421.421,0,0,1,107.331,120.893Zm1.117-2.434-.282,1.455,4.973-1.81-1.152-.933Zm-5.687,1.166,3.648-1.327a18.794,18.794,0,0,1-3.211-5.024C102.161,114.72,101.98,117.181,102.761,119.625Zm-.3-15.243a18.4,18.4,0,0,0,4.808,13.6l5.334-1.941a18.4,18.4,0,0,0-5.062-13.512Zm11,11.35,3.647-1.327c-.972-2.375-2.692-4.144-4.416-4.586A18.785,18.785,0,0,1,113.459,115.732Zm-10.9-12.289,4.3-1.566a14.28,14.28,0,0,0-3.254-2.243A14.309,14.309,0,0,0,102.557,103.442Zm60.269,12.565a.444.444,0,0,1,.281-.562l2.452-.893a.486.486,0,0,1,.248-.01c.16.082.082.043.237.114l.091.146a.444.444,0,0,1-.281.562l-2.451.893a.476.476,0,0,1-.163.029A.435.435,0,0,1,162.826,116.007Zm-18.229-.6-2.364-1.1a.433.433,0,1,1,.365-.783l2.363,1.1a.445.445,0,0,1,.231.585.43.43,0,0,1-.394.243A.472.472,0,0,1,144.6,115.411Zm-40.649-6.151a2.973,2.973,0,1,1,2.8,1.955A2.975,2.975,0,0,1,103.947,109.26Zm2.068-3.01a2.123,2.123,0,1,0,.725-.128A2.125,2.125,0,0,0,106.016,106.25Zm51.685,4.608a.444.444,0,0,1-.2-.6l1.1-2.364a.433.433,0,1,1,.783.365l-1.1,2.363a.459.459,0,0,1-.411.27A.413.413,0,0,1,157.7,110.858Zm-7.652-.827-.893-2.452a.444.444,0,0,1,.25-.576l.17-.024c.154.074.074.038.239.108.08.039.111.124.152.2l.893,2.451a.446.446,0,0,1-.25.577.412.412,0,0,1-.141.025A.454.454,0,0,1,150.049,110.03Zm34.688-4.189-2.092-4.485h0l-.1-.225-.965,1.428a.424.424,0,0,1-.736-.058l-2.87-6.157a.424.424,0,0,1,.428-.6l1.714.179-.1-.214v0l-2.091-4.484a.425.425,0,0,1,.205-.564c2.991-1.394,6.143-1.366,7.971.038.081-.04.16-.083.243-.121a17.289,17.289,0,0,1,13.218-.871.424.424,0,0,1,.251.539,17.291,17.291,0,0,1-9.164,9.565c-.083.039-.167.071-.249.108-.1,2.3-2.1,4.737-5.095,6.131a.425.425,0,0,1-.564-.205Zm-1.054-4.269,1.641,3.517c2.281-1.174,3.893-3.043,4.182-4.8A18.744,18.744,0,0,1,183.683,101.572Zm-2.391-.11.83-1.229-1.592-3.414-1.475-.155ZM186.7,91.344a18.045,18.045,0,0,0-5.8,4.257l2.4,5.144a18.4,18.4,0,0,0,13.019-6.22l-2.285-4.9A17.951,17.951,0,0,0,186.7,91.344Zm-7.827-.088,1.641,3.517a18.779,18.779,0,0,1,4.725-3.636,5.39,5.39,0,0,0-2.737-.654A9.526,9.526,0,0,0,178.871,91.256Zm18.04,2.536a14.274,14.274,0,0,0,1.949-3.436,14.307,14.307,0,0,0-3.885-.715Zm-18.532,8.459a.425.425,0,0,1,.205-.564l.77-.358a.424.424,0,0,1,.358.77l-.769.358a.425.425,0,0,1-.564-.205Zm-1.668-1.567a.424.424,0,0,1,.205-.563l1.539-.717a.424.424,0,1,1,.358.769l-1.538.716a.425.425,0,0,1-.564-.205ZM34.494,97.757c-.085.032-.167.068-.253.1A18.193,18.193,0,0,1,24,98.615v-.875a15.265,15.265,0,0,0,1.557.294L24,93.755V92.491a18.789,18.789,0,0,1,6.757-4.207c.085-.031.172-.057.257-.086.3-2.286,2.509-4.534,5.61-5.663a.425.425,0,0,1,.545.254l1.692,4.649v0l.085.233,1.085-1.339a.425.425,0,0,1,.729.122l2.323,6.383a.425.425,0,0,1-.48.562l-1.692-.328.081.221v0l1.692,4.649a.425.425,0,0,1-.253.544,10.855,10.855,0,0,1-3.682.679A6.253,6.253,0,0,1,34.494,97.757Zm.895-.364c1.446,1.037,3.907,1.218,6.351.436l-1.327-3.648A18.761,18.761,0,0,1,35.389,97.394Zm-4.342-8.312a17.944,17.944,0,0,0-6.4,3.969l1.85,5.081a18.4,18.4,0,0,0,13.6-4.809L38.159,87.99q-.452-.025-.909-.025A18.238,18.238,0,0,0,31.047,89.082Zm8.239-.48,1.288,3.54,1.456.283L40.219,87.45Zm-7.352-.7a18.737,18.737,0,0,1,5.913-.77l-1.327-3.648C34.144,84.457,32.376,86.178,31.934,87.9Zm144.65,10.5a.425.425,0,0,1,.205-.564l.769-.358a.425.425,0,1,1,.359.77l-.77.358a.424.424,0,0,1-.563-.205Zm11.281-2.916a2.971,2.971,0,1,1,2.7,1.717A2.975,2.975,0,0,1,187.864,95.484Zm1.8-3.181a2.123,2.123,0,1,0,.894-.2A2.126,2.126,0,0,0,189.66,92.3ZM27.566,94.865a2.971,2.971,0,1,1,2.8,1.957A2.976,2.976,0,0,1,27.566,94.865Zm2.066-3.011a2.123,2.123,0,1,0,.724-.128A2.126,2.126,0,0,0,29.633,91.854Zm40.622,3.56a1.854,1.854,0,0,1,1.309-2.268,1.818,1.818,0,0,1,.972.012l2.511-4.35a3.685,3.685,0,0,1-1.192-1.549l-4.544,1.217a2.778,2.778,0,1,1-.239-.894l4.544-1.218a3.682,3.682,0,0,1,.257-1.938l-7.276-4.2a2.811,2.811,0,1,1,.556-.749l7.183,4.146a3.679,3.679,0,0,1,4.381-1.174l2.511-4.35a1.83,1.83,0,0,1-.5-.834A1.852,1.852,0,1,1,83,78.575a1.83,1.83,0,0,1-.971-.012l-2.511,4.349a3.681,3.681,0,0,1,1.174,4.381l5.574,3.218a2.815,2.815,0,1,1-.555.749L80.229,88.1a3.679,3.679,0,0,1-4.381,1.174l-2.511,4.35a1.825,1.825,0,0,1,.5.835,1.852,1.852,0,0,1-3.578.959Zm1.55-1.374a.926.926,0,1,0,.239-.031A.927.927,0,0,0,71.8,94.039ZM87.7,90.74a1.852,1.852,0,1,0,.479-.063A1.854,1.854,0,0,0,87.7,90.74Zm-21.63-3.793a1.852,1.852,0,1,0,.479-.063A1.854,1.854,0,0,0,66.068,86.947Zm10.495-3.771a2.779,2.779,0,1,0,.718-.095A2.782,2.782,0,0,0,76.563,83.176ZM64.206,76.42a1.852,1.852,0,1,0,.479-.063A1.855,1.855,0,0,0,64.206,76.42Zm18.076-.528a.926.926,0,1,0,.239-.031A.927.927,0,0,0,82.282,75.892Zm61.826,19.393-.293-1.375c-.119-.032-.237-.069-.353-.112l-1.03.958a.367.367,0,0,1-.487.013l-1.429-1.2a.367.367,0,0,1-.072-.481l.765-1.181c-.062-.106-.119-.216-.171-.328l-1.406-.05a.369.369,0,0,1-.354-.336l-.162-1.859a.369.369,0,0,1,.289-.392l1.376-.293c.032-.119.069-.237.112-.353l-.958-1.03a.369.369,0,0,1-.013-.487l1.2-1.429a.369.369,0,0,1,.482-.072l1.18.765c.107-.062.217-.12.329-.171l.05-1.406a.367.367,0,0,1,.336-.353l1.859-.163a.368.368,0,0,1,.391.29l.293,1.375c.119.032.237.068.353.111l1.031-.958a.367.367,0,0,1,.487-.013l1.429,1.2a.369.369,0,0,1,.072.482l-.765,1.18c.062.107.119.217.171.329l1.4.05a.368.368,0,0,1,.354.336l.163,1.858a.367.367,0,0,1-.29.392l-1.375.293c-.032.119-.069.237-.112.354l.958,1.029a.369.369,0,0,1,.012.488l-1.2,1.429a.368.368,0,0,1-.482.072l-1.181-.765c-.107.062-.217.119-.328.171l-.05,1.406a.37.37,0,0,1-.336.354l-1.859.162h-.031A.37.37,0,0,1,144.108,95.285Zm-.582-2.253a3.6,3.6,0,0,0,.675.213.368.368,0,0,1,.285.284l.274,1.283,1.211-.105.047-1.312a.369.369,0,0,1,.232-.329,3.567,3.567,0,0,0,.626-.326.369.369,0,0,1,.4,0l1.1.715.781-.931-.895-.961a.369.369,0,0,1-.069-.4,3.448,3.448,0,0,0,.213-.674.369.369,0,0,1,.283-.285l1.284-.274-.106-1.211-1.312-.047a.369.369,0,0,1-.329-.231,3.556,3.556,0,0,0-.327-.628.368.368,0,0,1,0-.4l.715-1.1-.932-.78-.961.895a.37.37,0,0,1-.4.069,3.462,3.462,0,0,0-.675-.213A.37.37,0,0,1,145.37,86l-.274-1.284-1.211.105-.047,1.312a.37.37,0,0,1-.231.329,3.489,3.489,0,0,0-.627.327.369.369,0,0,1-.4,0l-1.1-.715L140.7,87l.895.961a.367.367,0,0,1,.068.4,3.562,3.562,0,0,0-.212.675.369.369,0,0,1-.283.285l-1.284.274.106,1.211,1.312.047a.367.367,0,0,1,.329.231,3.627,3.627,0,0,0,.327.628.367.367,0,0,1,0,.4l-.715,1.1.932.781.961-.895a.366.366,0,0,1,.4-.069Zm13.872-.537-.407-1.907a5.451,5.451,0,0,1-.6-.191l-1.428,1.329a.367.367,0,0,1-.487.013l-1.905-1.6a.368.368,0,0,1-.073-.481l1.061-1.637a5.431,5.431,0,0,1-.292-.561l-1.949-.069a.369.369,0,0,1-.354-.337l-.217-2.478a.37.37,0,0,1,.29-.392l1.908-.407a5.568,5.568,0,0,1,.19-.6L151.8,81.747a.368.368,0,0,1-.014-.487l1.6-1.906a.369.369,0,0,1,.482-.072l1.636,1.061a5.638,5.638,0,0,1,.562-.293l.069-1.948a.369.369,0,0,1,.336-.354l2.478-.218a.368.368,0,0,1,.392.29l.407,1.908a5.647,5.647,0,0,1,.6.191l1.428-1.329a.367.367,0,0,1,.487-.013l1.906,1.6a.369.369,0,0,1,.072.482l-1.061,1.636a5.531,5.531,0,0,1,.292.562l1.949.069a.369.369,0,0,1,.354.336L166,85.739a.368.368,0,0,1-.29.392l-1.908.408a5.571,5.571,0,0,1-.19.6l1.329,1.427a.368.368,0,0,1,.013.488l-1.6,1.905a.367.367,0,0,1-.482.072l-1.637-1.061a5.818,5.818,0,0,1-.561.293l-.069,1.949a.369.369,0,0,1-.337.354l-2.479.216h-.032A.368.368,0,0,1,157.4,92.495Zm-.945-2.865a4.833,4.833,0,0,0,.924.291.37.37,0,0,1,.284.284l.389,1.818,1.83-.159.067-1.858a.367.367,0,0,1,.231-.329,4.865,4.865,0,0,0,.859-.446.367.367,0,0,1,.4,0L163,90.239l1.181-1.407-1.267-1.361a.369.369,0,0,1-.068-.4,4.938,4.938,0,0,0,.292-.923.366.366,0,0,1,.283-.285l1.819-.388-.16-1.831-1.859-.066a.368.368,0,0,1-.328-.232,4.839,4.839,0,0,0-.447-.859.37.37,0,0,1,0-.4l1.012-1.56-1.407-1.181-1.362,1.267a.365.365,0,0,1-.4.069,4.873,4.873,0,0,0-.924-.292.369.369,0,0,1-.285-.284l-.388-1.818-1.83.16-.067,1.858a.366.366,0,0,1-.231.328,4.807,4.807,0,0,0-.859.448.369.369,0,0,1-.4,0l-1.561-1.011-1.181,1.407,1.267,1.361a.368.368,0,0,1,.068.4,4.861,4.861,0,0,0-.291.923.366.366,0,0,1-.283.284l-1.819.389.16,1.83,1.859.067a.366.366,0,0,1,.329.231,4.84,4.84,0,0,0,.447.859.367.367,0,0,1,0,.4l-1.012,1.56,1.408,1.182,1.361-1.267a.366.366,0,0,1,.4-.069ZM143.43,91.548a2.333,2.333,0,1,1,1.5.544A2.333,2.333,0,0,1,143.43,91.548Zm.276-2.81a1.6,1.6,0,1,0,1.223-.569A1.6,1.6,0,0,0,143.707,88.738ZM43.268,91.732a.425.425,0,0,1,.034-.784l.8-.29a.425.425,0,1,1,.291.8l-.8.29a.424.424,0,0,1-.146.026A.419.419,0,0,1,43.268,91.732ZM42.322,89.5a.423.423,0,0,1,.254-.544l1.595-.58a.424.424,0,0,1,.291.8l-1.6.58a.424.424,0,0,1-.544-.254Zm114.131-2.05a2.988,2.988,0,1,1,1.916.7A2.989,2.989,0,0,1,156.452,87.445Zm.2-3.732a2.251,2.251,0,1,0,1.724-.8A2.25,2.25,0,0,0,156.649,83.713ZM41.594,87.5a.425.425,0,0,1,.254-.545l.8-.29a.425.425,0,0,1,.29.8l-.8.29a.425.425,0,0,1-.544-.254ZM221.882,82A2.782,2.782,0,0,1,224,79.3v.968a1.853,1.853,0,0,0,0,3.461V84.7A2.783,2.783,0,0,1,221.882,82Zm-97.125-.3a.68.68,0,0,1-.375-.65.072.072,0,0,0,0-.056l.8-14.286-11.014,7.177,4.914,2.838a.725.725,0,0,1,.265.99.73.73,0,0,1-.453.359.694.694,0,0,1-.55-.073l-5.931-3.424-.023-.013a.727.727,0,0,1-.265-.991.679.679,0,0,1,.193-.234.1.1,0,0,0,.059-.053L125.7,64.616a.585.585,0,0,1,.72-.047.6.6,0,0,1,.311.613l-.865,15.895a.053.053,0,0,0-.008.039.046.046,0,0,1-.008.039.665.665,0,0,1-.085.3.677.677,0,0,1-.451.331.822.822,0,0,1-.19.023A.729.729,0,0,1,124.757,81.7Zm90.1-9.674a.367.367,0,0,1-.365-.323l-.239-1.936a5.692,5.692,0,0,1-.584-.241l-1.539,1.2a.367.367,0,0,1-.486-.03l-1.759-1.759a.367.367,0,0,1-.03-.487l1.2-1.537a5.835,5.835,0,0,1-.242-.585l-1.936-.239a.367.367,0,0,1-.322-.364V63.24a.367.367,0,0,1,.322-.365l1.937-.239a5.624,5.624,0,0,1,.241-.585l-1.2-1.537a.368.368,0,0,1,.03-.487l1.759-1.759a.368.368,0,0,1,.487-.03l1.538,1.2a5.733,5.733,0,0,1,.584-.242l.239-1.935a.368.368,0,0,1,.365-.323h2.488a.368.368,0,0,1,.365.323l.238,1.935a5.651,5.651,0,0,1,.584.242l1.539-1.2a.367.367,0,0,1,.486.031l1.76,1.759a.369.369,0,0,1,.03.487l-1.2,1.537a5.838,5.838,0,0,1,.242.585l1.936.239a.367.367,0,0,1,.322.365v2.488a.367.367,0,0,1-.322.364l-1.936.239a5.7,5.7,0,0,1-.242.584l1.2,1.538a.368.368,0,0,1-.03.487l-1.76,1.759a.367.367,0,0,1-.486.03l-1.538-1.2a5.708,5.708,0,0,1-.585.241l-.238,1.937a.369.369,0,0,1-.365.322ZM213.8,68.772a4.878,4.878,0,0,0,.895.371.368.368,0,0,1,.259.307l.228,1.846h1.838l.228-1.846a.367.367,0,0,1,.258-.307,4.851,4.851,0,0,0,.895-.371.368.368,0,0,1,.4.034l1.465,1.144,1.3-1.3-1.144-1.466a.368.368,0,0,1-.034-.4,4.842,4.842,0,0,0,.371-.895.369.369,0,0,1,.307-.259l1.846-.228V63.565l-1.846-.228a.369.369,0,0,1-.307-.259,4.857,4.857,0,0,0-.371-.895.368.368,0,0,1,.034-.4l1.143-1.467-1.3-1.3L218.8,60.161a.368.368,0,0,1-.4.034,4.831,4.831,0,0,0-.895-.371.371.371,0,0,1-.259-.307l-.227-1.845h-1.838l-.228,1.845a.369.369,0,0,1-.259.307,4.878,4.878,0,0,0-.895.371.367.367,0,0,1-.4-.034l-1.466-1.143-1.3,1.3,1.144,1.467a.367.367,0,0,1,.034.4,4.915,4.915,0,0,0-.371.895.368.368,0,0,1-.307.259l-1.846.228V65.4l1.846.228a.369.369,0,0,1,.307.259,4.816,4.816,0,0,0,.371.895.367.367,0,0,1-.034.4l-1.144,1.466,1.3,1.3,1.466-1.144a.367.367,0,0,1,.4-.034Zm-185.563.3L26.39,67.232a.445.445,0,0,1-.017-.628l.144-.093c.171,0,.083,0,.263,0a.413.413,0,0,1,.221.113l1.844,1.845a.443.443,0,0,1,.017.627.417.417,0,0,1-.3.122A.468.468,0,0,1,28.234,69.076Zm184.878-4.592a2.985,2.985,0,1,1,2.985,2.984A2.989,2.989,0,0,1,213.112,64.484Zm.736,0a2.249,2.249,0,1,0,2.249-2.249A2.251,2.251,0,0,0,213.848,64.484ZM24,64.63a6.873,6.873,0,0,0,0-8.937v-1.2a7.712,7.712,0,0,1,0,11.342Zm67.448-1.907a.368.368,0,0,1-.365-.322l-.239-1.937a5.532,5.532,0,0,1-.584-.241l-1.538,1.2a.368.368,0,0,1-.487-.03l-1.759-1.76a.368.368,0,0,1-.031-.486l1.2-1.538a5.352,5.352,0,0,1-.242-.584l-1.936-.239a.368.368,0,0,1-.323-.365V53.932a.367.367,0,0,1,.323-.365l1.935-.239a5.638,5.638,0,0,1,.243-.585l-1.2-1.538a.368.368,0,0,1,.031-.486l1.759-1.759a.368.368,0,0,1,.487-.03l1.538,1.2a5.7,5.7,0,0,1,.584-.242l.239-1.935a.368.368,0,0,1,.365-.323h2.488a.369.369,0,0,1,.365.323l.239,1.935a5.715,5.715,0,0,1,.585.242l1.538-1.2a.367.367,0,0,1,.486.03l1.759,1.759a.367.367,0,0,1,.03.486l-1.2,1.538a5.632,5.632,0,0,1,.242.585l1.936.239a.367.367,0,0,1,.323.365v2.488a.368.368,0,0,1-.323.365l-1.936.239a5.352,5.352,0,0,1-.242.584l1.2,1.538a.367.367,0,0,1-.03.486l-1.759,1.76a.367.367,0,0,1-.486.03l-1.538-1.2a5.709,5.709,0,0,1-.585.241L94.3,62.4a.367.367,0,0,1-.365.322Zm-1.057-3.259a4.883,4.883,0,0,0,.895.371.367.367,0,0,1,.259.307l.228,1.845H93.61l.229-1.845a.367.367,0,0,1,.258-.307,4.831,4.831,0,0,0,.895-.371.367.367,0,0,1,.4.034l1.467,1.144,1.3-1.3-1.144-1.466a.37.37,0,0,1-.034-.4,4.824,4.824,0,0,0,.372-.895.368.368,0,0,1,.307-.259l1.845-.228V54.257l-1.845-.229a.367.367,0,0,1-.308-.258,4.861,4.861,0,0,0-.371-.9.37.37,0,0,1,.034-.4l1.144-1.466-1.3-1.3-1.466,1.143a.37.37,0,0,1-.4.034,4.791,4.791,0,0,0-.895-.371.368.368,0,0,1-.258-.307l-.229-1.846H91.773l-.228,1.846a.369.369,0,0,1-.259.307,4.791,4.791,0,0,0-.895.371.37.37,0,0,1-.4-.034L88.525,49.71l-1.3,1.3,1.143,1.466a.367.367,0,0,1,.034.4,4.847,4.847,0,0,0-.37.9.368.368,0,0,1-.308.258l-1.845.229v1.837l1.845.228a.369.369,0,0,1,.308.259,4.818,4.818,0,0,0,.37.895.369.369,0,0,1-.034.4l-1.143,1.466,1.3,1.3L89.991,59.5a.367.367,0,0,1,.4-.034Zm133.146,1.09a.369.369,0,0,1-.03-.487l.492-.631v1.58ZM168.316,60.3l-6.265-6.266a.424.424,0,0,1,0-.6l.337-.337-.806-.806a9.567,9.567,0,0,1-5.6,1.868,9.338,9.338,0,1,1,9.338-9.338,9.577,9.577,0,0,1-1.868,5.6l.807.807.337-.337.14-.094c.375,0,.23-.058.459.094l6.267,6.266a2.225,2.225,0,0,1-1.575,3.8h-.007A2.215,2.215,0,0,1,168.316,60.3Zm-5.365-6.566,5.965,5.965a1.377,1.377,0,0,0,1.947-1.947L164.9,51.789Zm-15.457-8.914a8.49,8.49,0,1,0,8.49-8.49A8.5,8.5,0,0,0,147.495,44.822Zm14.744,6.927.75.749.673-.673-.75-.749A5.009,5.009,0,0,1,162.239,51.749Zm-133.52,8.54a.432.432,0,1,1,0-.863h2.608a.432.432,0,1,1,0,.863Zm194.117-1.845a.368.368,0,0,1-.323-.365V56.213a.369.369,0,0,1,.323-.365L224,55.7v.742l-.751.093v1.215l.751.093v.742ZM89.707,55.176a2.985,2.985,0,1,1,2.985,2.984A2.989,2.989,0,0,1,89.707,55.176Zm.736,0a2.249,2.249,0,1,0,2.249-2.249A2.253,2.253,0,0,0,90.443,55.176Zm110.7.921-.892-2.451a.445.445,0,0,1,.25-.577l.17-.023c.154.073.074.037.239.107.08.039.11.125.152.2l.893,2.451a.446.446,0,0,1-.25.577.41.41,0,0,1-.141.025A.456.456,0,0,1,201.146,56.1Zm-8.137.061-3.841-1.791a.419.419,0,0,1-.23-.283,3.635,3.635,0,0,1,.13-2.068l.676-1.449.207-2.207a7.719,7.719,0,1,1,7.156,3.337l-1.558,1.577-.676,1.449a3.634,3.634,0,0,1-1.5,1.429.416.416,0,0,1-.364.005ZM189.715,53.7l3.452,1.61a3.211,3.211,0,0,0,.714-.59l-4.172-1.946A3.143,3.143,0,0,0,189.715,53.7ZM190,51.991l4.29,2,.354-.758-4.291-2Zm.091-10.885a6.905,6.905,0,0,0,.628,6.9.418.418,0,0,1,.076.281l-.2,2.138,4.514,2.105L196.618,51a.419.419,0,0,1,.264-.123,6.885,6.885,0,1,0-6.79-9.773Zm33.415,13.118a.368.368,0,0,1,.03-.486l.463-.463v1.58ZM79.591,53.59a.369.369,0,0,1-.365-.323l-.172-1.4c-.116-.042-.23-.089-.342-.141L77.6,52.6a.368.368,0,0,1-.487-.03L75.8,51.246a.368.368,0,0,1-.03-.487l.865-1.109c-.052-.112-.1-.226-.141-.342l-1.4-.172a.369.369,0,0,1-.323-.365V46.905a.368.368,0,0,1,.322-.365l1.4-.173c.042-.116.089-.23.141-.342l-.865-1.109a.367.367,0,0,1,.03-.486l1.319-1.319a.368.368,0,0,1,.487-.03l1.109.865c.112-.052.225-.1.342-.142l.173-1.4a.367.367,0,0,1,.364-.323h1.866a.367.367,0,0,1,.365.323l.173,1.4c.116.042.23.09.343.142l1.109-.865a.367.367,0,0,1,.486.03l1.319,1.319a.368.368,0,0,1,.03.486l-.865,1.109c.052.112.1.226.141.342l1.4.173a.369.369,0,0,1,.322.365v1.866a.369.369,0,0,1-.323.365l-1.4.172c-.042.116-.09.23-.142.342l.865,1.109a.368.368,0,0,1-.03.487l-1.319,1.319a.367.367,0,0,1-.486.03l-1.109-.865c-.112.052-.226.1-.343.141l-.173,1.4a.367.367,0,0,1-.365.323Zm-.748-2.617a3.482,3.482,0,0,0,.653.27.368.368,0,0,1,.258.308l.162,1.3h1.215l.161-1.3a.369.369,0,0,1,.259-.308,3.507,3.507,0,0,0,.653-.27.368.368,0,0,1,.4.033l1.036.808.859-.86-.807-1.035a.37.37,0,0,1-.034-.4,3.485,3.485,0,0,0,.271-.653.369.369,0,0,1,.308-.259l1.3-.161V47.23l-1.3-.161a.368.368,0,0,1-.307-.258,3.519,3.519,0,0,0-.271-.654.367.367,0,0,1,.034-.4L84.5,44.72l-.859-.859-1.036.807a.368.368,0,0,1-.4.034,3.51,3.51,0,0,0-.653-.271.369.369,0,0,1-.259-.308l-.161-1.3H79.916l-.162,1.3a.367.367,0,0,1-.258.308,3.426,3.426,0,0,0-.653.271.367.367,0,0,1-.4-.034l-1.037-.808-.859.86.807,1.036a.367.367,0,0,1,.034.4,3.58,3.58,0,0,0-.271.654.368.368,0,0,1-.307.258l-1.3.161v1.215l1.3.161a.37.37,0,0,1,.307.258,3.55,3.55,0,0,0,.271.654.368.368,0,0,1-.034.4l-.807,1.035.859.86,1.037-.808a.368.368,0,0,1,.4-.033ZM25.587,53.125a.445.445,0,0,1,.018-.628l1.844-1.844a.482.482,0,0,1,.221-.114c.181.006.093,0,.264,0l.144.094a.445.445,0,0,1-.017.628l-1.845,1.844a.467.467,0,0,1-.33.139A.419.419,0,0,1,25.587,53.125Zm21.929-1.04a.779.779,0,0,1-.367-.743.1.1,0,0,0,0-.078L50.438,35.71a.582.582,0,0,1,.476-.541.594.594,0,0,1,.653.212L62.194,47.233a.052.052,0,0,0,.023.033.052.052,0,0,1,.022.033.672.672,0,0,1,.065.823.739.739,0,0,1-.452.342.682.682,0,0,1-.724-.194.072.072,0,0,0-.038-.041l-9.535-10.67L48.842,50.423l5.481-1.468a.724.724,0,0,1,.887.512.727.727,0,0,1-.066.574.694.694,0,0,1-.44.338l-6.616,1.773-.023.006a.746.746,0,0,1-.195.027A.7.7,0,0,1,47.516,52.086Zm101.253-7.264a7.216,7.216,0,1,1,7.216,7.215A7.225,7.225,0,0,1,148.768,44.822Zm.849,0a6.367,6.367,0,1,0,6.368-6.368A6.374,6.374,0,0,0,149.617,44.822ZM78.193,47.838a2.331,2.331,0,1,1,2.331,2.331A2.334,2.334,0,0,1,78.193,47.838Zm.736,0a1.594,1.594,0,1,0,1.595-1.595A1.6,1.6,0,0,0,78.929,47.839Zm128.732,1.6-2.364-1.1a.433.433,0,1,1,.365-.783l2.364,1.1a.445.445,0,0,1,.231.584.432.432,0,0,1-.395.243A.475.475,0,0,1,207.661,49.44Zm-23.868-1.416a.444.444,0,0,1,.281-.562l2.451-.892a.476.476,0,0,1,.248-.011c.161.082.082.044.237.114l.092.146a.446.446,0,0,1-.281.563l-2.452.891a.478.478,0,0,1-.164.029A.432.432,0,0,1,183.794,48.024Zm-58.476-3.159a.425.425,0,0,1-.325-.286l-.581-1.595a.425.425,0,0,1,.8-.291l.58,1.595a.425.425,0,0,1-.473.577Zm-2.612-.357-.29-.8a.424.424,0,1,1,.8-.29l.29.8a.424.424,0,1,1-.8.291Zm3.993-1.454-.291-.8a.425.425,0,0,1,.254-.544h0a.423.423,0,0,1,.544.254l.29.8a.424.424,0,0,1-.8.291Zm-5.8.073a.422.422,0,0,1-.14-.4l.328-1.692-.221.081h0L116.216,42.8a.422.422,0,0,1-.544-.254c-1.129-3.1-.826-6.238.732-7.937-.032-.085-.068-.168-.1-.253a17.291,17.291,0,0,1,.284-13.243.425.425,0,0,1,.083-.117h.664a17.349,17.349,0,0,1,8.542,9.876c.032.086.057.173.086.258,2.286.3,4.534,2.508,5.663,5.61a.423.423,0,0,1-.254.544l-4.649,1.692h0l-.233.085,1.338,1.085a.424.424,0,0,1-.121.728L121.323,43.2a.426.426,0,0,1-.421-.076Zm1.118-2.435-.283,1.456,4.974-1.811-1.152-.934Zm-5.687,1.166,3.648-1.327a18.744,18.744,0,0,1-3.211-5.024C115.732,36.954,115.55,39.415,116.332,41.858Zm-.3-15.243a18.407,18.407,0,0,0,4.809,13.6l5.334-1.941a18.4,18.4,0,0,0-5.062-13.512Zm11,11.351,3.647-1.327c-.972-2.375-2.693-4.145-4.416-4.585A18.785,18.785,0,0,1,127.03,37.966Zm-10.9-12.289,4.3-1.566a14.281,14.281,0,0,0-3.254-2.243A14.309,14.309,0,0,0,116.128,25.676Zm89.36,14.846a.444.444,0,0,1,.282-.562l2.451-.893a.486.486,0,0,1,.248-.01c.16.082.082.044.237.114l.091.146a.444.444,0,0,1-.281.562l-2.451.893a.479.479,0,0,1-.163.029A.435.435,0,0,1,205.488,40.522Zm-18.23-.6-2.364-1.1a.433.433,0,1,1,.365-.783l2.363,1.1a.445.445,0,0,1,.231.584.43.43,0,0,1-.394.244A.475.475,0,0,1,187.258,39.926Zm13.1-4.554a.444.444,0,0,1-.2-.6l1.1-2.363a.432.432,0,1,1,.782.365l-1.1,2.363a.459.459,0,0,1-.41.27A.41.41,0,0,1,200.363,35.372Zm-7.653-.827-.893-2.452a.445.445,0,0,1,.25-.576l.17-.024c.154.074.074.037.24.108.079.039.109.124.152.2l.892,2.451a.445.445,0,0,1-.25.577.412.412,0,0,1-.14.025A.455.455,0,0,1,192.711,34.545Zm-75.192-3.051a2.972,2.972,0,1,1,2.8,1.955A2.976,2.976,0,0,1,117.518,31.494Zm2.068-3.01a2.122,2.122,0,1,0,.726-.128A2.124,2.124,0,0,0,119.587,28.483ZM31.823,31.8l-6.265-6.265a.423.423,0,0,1,0-.6l.337-.337-.807-.807c-.358.243-.72.467-1.087.67v-.949A8.558,8.558,0,0,0,26.573,21h1a8.986,8.986,0,0,1-.608.921l.807.806.337-.337.14-.093c.376,0,.231-.059.46.093l6.266,6.266A2.225,2.225,0,0,1,31.823,31.8Zm-5.365-6.565L32.423,31.2a1.377,1.377,0,1,0,1.948-1.946L28.4,23.291Zm-.713-1.987.75.75.673-.673-.75-.75A4.957,4.957,0,0,1,25.745,23.251ZM216.926,27.5a2.775,2.775,0,0,1,4.642-2.056L224,23.011v1.31l-1.853,1.853a2.778,2.778,0,1,1-5.221,1.325Zm.926,0a1.852,1.852,0,1,0,1.852-1.852A1.855,1.855,0,0,0,217.852,27.5ZM84.5,23.213A2.771,2.771,0,0,1,85.6,21h3.349A2.777,2.777,0,1,1,84.5,23.213Zm.925,0a1.852,1.852,0,1,0,1.852-1.852A1.854,1.854,0,0,0,85.424,23.213Zm-11.577-.926A2.769,2.769,0,0,1,74.165,21H75.3a1.852,1.852,0,1,0,2.662,0h1.131a2.778,2.778,0,1,1-5.241,1.287ZM24,21h.982a7.282,7.282,0,0,1-.982.954Zm69.588,0h2.195a1.849,1.849,0,0,1-2.195,0Z" transform="translate(2236 3833)" fill="#2a2a2a" opacity="0.3"/>
  </g>
</svg>
