<svg width="108" height="30" viewBox="0 0 108 30" fill="none" xmlns="http://www.w3.org/2000/svg">
<path d="M46.9372 30H42.916V0H46.9372V30Z" fill="black"/>
<path d="M107.646 30H103.625V0H107.646V30Z" fill="black"/>
<path d="M54.3193 30H50.3016V0H54.3193V30Z" fill="black"/>
<path d="M72.8776 30H69.0626L69.0172 29.9546L58.1554 18.7749L61.4394 15.6306L72.8776 27.7221V30Z" fill="black"/>
<path d="M56.3806 17.6255V12.0147L69.0276 0H72.4829V2.23594L72.434 2.28136L56.3806 17.6255Z" fill="black"/>
<path d="M19.0264 30H15.634V27.8724L35.726 0.0104675H39.6739V17.6918H35.6527V6.6519L19.0264 30Z" fill="black"/>
<path d="M39.6739 30H35.6527V23.5262H26.0906L28.9309 19.7426H39.6844L39.6739 30Z" fill="black"/>
<path d="M7.49388 3.78363H0V0H7.49388V3.78363Z" fill="black"/>
<path d="M13.5763 30H9.55164V0H21.8668V3.78363H13.5763V30Z" fill="black"/>
<path d="M77.5871 30H74.2506V27.6033V27.5719L84.5115 4.43694L86.7649 9.27215L86.7334 9.33853L77.5871 30Z" fill="black"/>
<path d="M97.0327 17.5242H92.5853L85.6469 1.93199L86.5063 0H89.2348L97.0327 17.5242Z" fill="black"/>
<path d="M101.554 30H98.1403L95.1812 23.3621H82.7892L84.4347 19.5854H97.9517L101.554 27.6907V30Z" fill="black"/>
</svg>
